<svg width="15" height="15" viewBox="0 0 11 11" fill="none" xmlns="http://www.w3.org/2000/svg">
<path d="M10.5 9.89844H0.4375C0.195508 9.89844 0 10.0939 0 10.3359V10.8281C0 10.8883 0.0492187 10.9375 0.109375 10.9375H10.8281C10.8883 10.9375 10.9375 10.8883 10.9375 10.8281V10.3359C10.9375 10.0939 10.742 9.89844 10.5 9.89844ZM1.99199 8.75C2.01934 8.75 2.04668 8.74727 2.07402 8.74316L4.37363 8.33984C4.40098 8.33438 4.42695 8.32207 4.44609 8.30156L10.2416 2.50605C10.2543 2.49341 10.2643 2.47838 10.2712 2.46184C10.2781 2.4453 10.2816 2.42757 10.2816 2.40967C10.2816 2.39176 10.2781 2.37403 10.2712 2.35749C10.2643 2.34095 10.2543 2.32593 10.2416 2.31328L7.96934 0.0396485C7.94336 0.0136719 7.90918 0 7.87227 0C7.83535 0 7.80117 0.0136719 7.7752 0.0396485L1.97969 5.83516C1.95918 5.85566 1.94687 5.88027 1.94141 5.90762L1.53809 8.20723C1.52479 8.28047 1.52954 8.35585 1.55193 8.42684C1.57432 8.49783 1.61368 8.56229 1.6666 8.61465C1.75684 8.70215 1.87031 8.75 1.99199 8.75ZM2.91348 6.36562L7.87227 1.4082L8.87441 2.41035L3.91562 7.36777L2.7002 7.58242L2.91348 6.36562Z" fill="#1890FF"/>
</svg>
